<?xml version="1.0" encoding="utf-8"?>
<!-- Generator: Adobe Illustrator 15.0.0, SVG Export Plug-In . SVG Version: 6.00 Build 0)  -->
<!DOCTYPE svg PUBLIC "-//W3C//DTD SVG 1.1//EN" "http://www.w3.org/Graphics/SVG/1.1/DTD/svg11.dtd">
<svg version="1.1" id="Calque_1" xmlns="http://www.w3.org/2000/svg" xmlns:xlink="http://www.w3.org/1999/xlink" x="0px" y="0px"
	 width="40px" height="517px" viewBox="0 0 40 517" enable-background="new 0 0 40 517" xml:space="preserve">
<g>
	<path d="M12.375,170.543c0,4.418,3.582,8,8,8s8-3.582,8-8s-3.582-8-8-8S12.375,166.125,12.375,170.543z M26.875,170.543
		c0,3.59-2.91,6.5-6.5,6.5s-6.5-2.91-6.5-6.5s2.91-6.5,6.5-6.5S26.875,166.953,26.875,170.543z"/>
	<path d="M23.418,173l1.414-1.414l-4.457-4.457l-4.457,4.457L17.332,173l3.043-3.043L23.418,173z"/>
</g>
<g>
	<path d="M20.375,19c4.418,0,8-3.582,8-8s-3.582-8-8-8s-8,3.582-8,8S15.957,19,20.375,19z M20.375,17.5c-3.59,0-6.5-2.91-6.5-6.5
		s2.91-6.5,6.5-6.5s6.5,2.91,6.5,6.5S23.965,17.5,20.375,17.5z"/>
	<path d="M20.375,11.586l-3.043-3.043l-1.414,1.414l4.457,4.457l4.457-4.457l-1.414-1.414L20.375,11.586z"/>
</g>
<g>
	<path fill="#FFFFFF" d="M12.375,479.543c0,4.418,3.582,8,8,8s8-3.582,8-8s-3.582-8-8-8S12.375,475.125,12.375,479.543z
		 M26.875,479.543c0,3.59-2.91,6.5-6.5,6.5s-6.5-2.91-6.5-6.5s2.91-6.5,6.5-6.5S26.875,475.953,26.875,479.543z"/>
	<path fill="#FFFFFF" d="M23.418,482l1.414-1.414l-4.457-4.457l-4.457,4.457L17.332,482l3.043-3.043L23.418,482z"/>
</g>
<g>
	<path fill="#FFFFFF" d="M20.375,328c4.418,0,8-3.582,8-8s-3.582-8-8-8s-8,3.582-8,8S15.957,328,20.375,328z M20.375,326.5
		c-3.59,0-6.5-2.91-6.5-6.5s2.91-6.5,6.5-6.5s6.5,2.91,6.5,6.5S23.965,326.5,20.375,326.5z"/>
	<path fill="#FFFFFF" d="M20.375,320.586l-3.043-3.043l-1.414,1.414l4.457,4.457l4.457-4.457l-1.414-1.414L20.375,320.586z"/>
</g>
</svg>
